<svg width="120" height="120" viewBox="0 0 120 120" xmlns="http://www.w3.org/2000/svg">
  <defs>
    <linearGradient id="barGradient1" x1="0%" y1="0%" x2="0%" y2="100%">
      <stop offset="0%" style="stop-color:#2196F3;stop-opacity:1" />
      <stop offset="100%" style="stop-color:#1976D2;stop-opacity:1" />
    </linearGradient>
    <linearGradient id="barGradient2" x1="0%" y1="0%" x2="0%" y2="100%">
      <stop offset="0%" style="stop-color:#4CAF50;stop-opacity:1" />
      <stop offset="100%" style="stop-color:#388E3C;stop-opacity:1" />
    </linearGradient>
    <linearGradient id="barGradient3" x1="0%" y1="0%" x2="0%" y2="100%">
      <stop offset="0%" style="stop-color:#FF9800;stop-opacity:1" />
      <stop offset="100%" style="stop-color:#F57C00;stop-opacity:1" />
    </linearGradient>
    <linearGradient id="bgGradient" x1="0%" y1="0%" x2="100%" y2="100%">
      <stop offset="0%" style="stop-color:#f8f9fa;stop-opacity:1" />
      <stop offset="100%" style="stop-color:#e9ecef;stop-opacity:1" />
    </linearGradient>
  </defs>
  
  <!-- Background -->
  <rect width="120" height="120" rx="12" fill="url(#bgGradient)" stroke="#dee2e6" stroke-width="2"/>
  
  <!-- Grid lines -->
  <g stroke="#e0e0e0" stroke-width="0.5" opacity="0.5">
    <line x1="20" y1="20" x2="20" y2="95"/>
    <line x1="20" y1="95" x2="100" y2="95"/>
    
    <line x1="20" y1="75" x2="100" y2="75"/>
    <line x1="20" y1="55" x2="100" y2="55"/>
    <line x1="20" y1="35" x2="100" y2="35"/>
  </g>
  
  <!-- Bar chart bars -->
  <rect x="25" y="65" width="12" height="30" fill="url(#barGradient1)" rx="2"/>
  <rect x="42" y="45" width="12" height="50" fill="url(#barGradient2)" rx="2"/>
  <rect x="59" y="55" width="12" height="40" fill="url(#barGradient3)" rx="2"/>
  <rect x="76" y="35" width="12" height="60" fill="url(#barGradient1)" rx="2"/>
  <rect x="93" y="50" width="12" height="45" fill="url(#barGradient2)" rx="2"/>
  
  <!-- Labels/ticks -->
  <g fill="#666" font-family="Arial, sans-serif" font-size="8" text-anchor="middle">
    <text x="31" y="105">Q1</text>
    <text x="48" y="105">Q2</text>
    <text x="65" y="105">Q3</text>
    <text x="82" y="105">Q4</text>
    <text x="99" y="105">Q5</text>
  </g>
  
  <!-- Growth indicator -->
  <g fill="#4CAF50" opacity="0.8">
    <polygon points="85,25 95,25 90,15"/>
    <text x="90" y="12" font-family="Arial, sans-serif" font-size="10" text-anchor="middle" fill="#4CAF50">↗</text>
  </g>
</svg>