<svg width="120" height="120" viewBox="0 0 120 120" xmlns="http://www.w3.org/2000/svg">
  <defs>
    <linearGradient id="chartGradient" x1="0%" y1="0%" x2="100%" y2="100%">
      <stop offset="0%" style="stop-color:#4CAF50;stop-opacity:1" />
      <stop offset="100%" style="stop-color:#2196F3;stop-opacity:1" />
    </linearGradient>
    <linearGradient id="bgGradient" x1="0%" y1="0%" x2="100%" y2="100%">
      <stop offset="0%" style="stop-color:#f8f9fa;stop-opacity:1" />
      <stop offset="100%" style="stop-color:#e9ecef;stop-opacity:1" />
    </linearGradient>
  </defs>
  
  <!-- Background -->
  <rect width="120" height="120" rx="12" fill="url(#bgGradient)" stroke="#dee2e6" stroke-width="2"/>
  
  <!-- Grid lines -->
  <g stroke="#e0e0e0" stroke-width="0.5" opacity="0.7">
    <line x1="20" y1="20" x2="20" y2="100"/>
    <line x1="40" y1="20" x2="40" y2="100"/>
    <line x1="60" y1="20" x2="60" y2="100"/>
    <line x1="80" y1="20" x2="80" y2="100"/>
    <line x1="100" y1="20" x2="100" y2="100"/>
    
    <line x1="20" y1="30" x2="100" y2="30"/>
    <line x1="20" y1="50" x2="100" y2="50"/>
    <line x1="20" y1="70" x2="100" y2="70"/>
    <line x1="20" y1="90" x2="100" y2="90"/>
  </g>
  
  <!-- Chart line with realistic stock movement -->
  <polyline points="20,85 30,75 40,80 50,65 60,60 70,45 80,50 90,35 100,30" 
            fill="none" 
            stroke="url(#chartGradient)" 
            stroke-width="3" 
            stroke-linecap="round"/>
  
  <!-- Data points -->
  <g fill="url(#chartGradient)">
    <circle cx="20" cy="85" r="3"/>
    <circle cx="30" cy="75" r="3"/>
    <circle cx="40" cy="80" r="3"/>
    <circle cx="50" cy="65" r="3"/>
    <circle cx="60" cy="60" r="3"/>
    <circle cx="70" cy="45" r="3"/>
    <circle cx="80" cy="50" r="3"/>
    <circle cx="90" cy="35" r="3"/>
    <circle cx="100" cy="30" r="3"/>
  </g>
  
  <!-- Trend arrow -->
  <g fill="#4CAF50">
    <polygon points="95,25 105,25 100,15" opacity="0.8"/>
  </g>
</svg>